# xmcd
#
# Track frame offsets:
#	150
#	38517
#	61726
#	90745
#	128896
#	153260
#	181495
#
# Disc length: 2662 seconds
#
# Revision: 1
# Processed by: cddbd v1.5.2PL0 Copyright (c) Steve Scherf et al.
# Submitted via: audiograbber 1.83.01
#
DISCID=4e0a6407
DTITLE=Sweet Georgia Brown - Cherry Pie
DYEAR=2007
DGENRE=Blues
TTITLE0=Lets the good times roll (all night long)
TTITLE1=Call me, I'm the one
TTITLE2=I'm a bad girl
TTITLE3=I got it bad and that ain't good
TTITLE4=Cherry Pie
TTITLE5=You hurt me so I hurt you
TTITLE6=Husbands
EXTD=
EXTT0=
EXTT1=
EXTT2=
EXTT3=
EXTT4=
EXTT5=
EXTT6=
PLAYORDER=
